<svg width="192" height="51" viewBox="0 0 192 51" fill="none" xmlns="http://www.w3.org/2000/svg">
<path fill-rule="evenodd" clip-rule="evenodd" d="M34.1455 30.6916C38.2252 28.5154 41.0182 24.0866 41.0182 18.9769C41.0182 11.7153 35.377 5.82855 28.4182 5.82855C23.5218 5.82855 19.2775 8.74312 17.192 13.0004H4.36365V44.0786H34.1455V30.6916ZM35.2909 18.9769C35.2909 22.9379 32.214 26.1488 28.4182 26.1488C24.6226 26.1488 21.5455 22.9379 21.5455 18.9769C21.5455 15.016 24.6226 11.8051 28.4182 11.8051C32.214 11.8051 35.2909 15.016 35.2909 18.9769ZM15.8182 18.9769H10.0909V38.1018H28.4182V32.1253C21.4594 32.1253 15.8182 26.2386 15.8182 18.9769Z" fill="#ffffff"/>
<path d="M51.7091 37.691H65.4805V33.5744H56.6038V18.0685H51.7091V37.691Z" fill="#4A5568"/>
<path d="M73.6397 34.9467C71.6764 34.9467 70.6528 33.245 70.6528 30.6928C70.6528 28.1405 71.6764 26.4116 73.6397 26.4116C75.6025 26.4116 76.654 28.1405 76.654 30.6928C76.654 33.245 75.6025 34.9467 73.6397 34.9467ZM73.6669 38.1301C78.2297 38.1301 81.2168 34.9191 81.2168 30.6928C81.2168 26.4664 78.2297 23.2554 73.6669 23.2554C69.1321 23.2554 66.0902 26.4664 66.0902 30.6928C66.0902 34.9191 69.1321 38.1301 73.6669 38.1301Z" fill="#4A5568"/>
<path d="M89.1143 42.5486C91.2158 42.5486 93.0685 42.082 94.313 40.9842C95.4467 39.969 96.1934 38.4319 96.1934 36.3189V23.6398H91.8797V25.1491H91.8238C90.9949 23.9691 89.7223 23.228 87.8419 23.228C84.3299 23.228 81.8964 26.1371 81.8964 30.2536C81.8964 34.5624 84.8556 36.9225 88.0358 36.9225C89.7502 36.9225 90.8289 36.2365 91.6579 35.3034H91.7687V36.7031C91.7687 38.4045 90.967 39.3923 89.0586 39.3923C87.5658 39.3923 86.819 38.7616 86.5702 38.0207H82.2012C82.6432 40.9568 85.2154 42.5486 89.1143 42.5486ZM89.0865 33.6019C87.3998 33.6019 86.2934 32.2297 86.2934 30.1165C86.2934 27.9758 87.3998 26.6036 89.0865 26.6036C90.967 26.6036 91.9626 28.1954 91.9626 30.089C91.9626 32.065 91.0499 33.6019 89.0865 33.6019Z" fill="#4A5568"/>
<path d="M105.064 34.9467C103.1 34.9467 102.077 33.245 102.077 30.6928C102.077 28.1405 103.1 26.4116 105.064 26.4116C107.027 26.4116 108.078 28.1405 108.078 30.6928C108.078 33.245 107.027 34.9467 105.064 34.9467ZM105.091 38.1301C109.654 38.1301 112.641 34.9191 112.641 30.6928C112.641 26.4664 109.654 23.2554 105.091 23.2554C100.556 23.2554 97.514 26.4664 97.514 30.6928C97.514 34.9191 100.556 38.1301 105.091 38.1301Z" fill="#4A5568"/>
<path d="M113.957 37.691H118.464V23.6398H113.957V37.691ZM113.957 21.6911H118.464V18.0685H113.957V21.6911Z" fill="#4A5568"/>
<path d="M120.42 42.329H124.927V36.2365H124.983C125.867 37.4167 127.167 38.1301 128.992 38.1301C132.698 38.1301 135.159 35.221 135.159 30.6653C135.159 26.439 132.864 23.228 129.103 23.228C127.167 23.228 125.785 24.0789 124.817 25.3413H124.734V23.6398H120.42V42.329ZM127.831 34.6721C125.895 34.6721 124.789 33.1079 124.789 30.8299C124.789 28.5521 125.785 26.8232 127.748 26.8232C129.683 26.8232 130.596 28.415 130.596 30.8299C130.596 33.2176 129.545 34.6721 127.831 34.6721Z" fill="#4A5568"/>
<path d="M142.497 38.1301C146.204 38.1301 148.941 36.5383 148.941 33.4646C148.941 29.8695 146.01 29.2383 143.521 28.8267C141.724 28.4973 140.119 28.3601 140.119 27.372C140.119 26.4939 140.977 26.0823 142.083 26.0823C143.327 26.0823 144.185 26.4664 144.351 27.7289H148.499C148.276 24.9571 146.121 23.228 142.111 23.228C138.764 23.228 135.999 24.7649 135.999 27.7289C135.999 31.0221 138.626 31.6808 141.088 32.0926C142.968 32.4219 144.682 32.559 144.682 33.8215C144.682 34.7271 143.825 35.221 142.47 35.221C140.977 35.221 140.037 34.535 139.871 33.1353H135.612C135.75 36.2365 138.35 38.1301 142.497 38.1301Z" fill="#4A5568"/>
<path d="M155.063 38.1028C157.027 38.1028 158.272 37.3342 159.295 35.962H159.377V37.6911H163.692V23.6398H159.184V31.4887C159.184 33.1628 158.243 34.3154 156.695 34.3154C155.257 34.3154 154.566 33.4648 154.566 31.9278V23.6398H150.086V32.8609C150.086 35.9896 151.801 38.1028 155.063 38.1028Z" fill="#4A5568"/>
<path d="M165.652 37.691H170.16V29.8146C170.16 28.1405 170.989 26.9605 172.4 26.9605C173.754 26.9605 174.39 27.8386 174.39 29.348V37.691H178.897V29.8146C178.897 28.1405 179.7 26.9605 181.137 26.9605C182.493 26.9605 183.129 27.8386 183.129 29.348V37.691H187.636V28.5521C187.636 25.3961 186.033 23.228 182.825 23.228C180.999 23.228 179.479 23.9965 178.372 25.698H178.317C177.599 24.1886 176.188 23.228 174.335 23.228C172.288 23.228 170.934 24.1886 170.049 25.6431H169.967V23.6398H165.652V37.691Z" fill="#4A5568"/>
</svg>
